<?xml version="1.0" encoding="utf-8"?>
<svg width="35" height="33" viewBox="0 0 35 33" fill="none" xmlns="http://www.w3.org/2000/svg">
<path d="M32.9582 1L19.8241 10.9179L22.2665 5.23403L32.9582 1Z" fill="#E17726" stroke="#E17726" stroke-width="0.25" stroke-linecap="round" stroke-linejoin="round"/>
<path d="M2.65601 1L15.6752 11.0179L13.3477 5.23403L2.65601 1Z" fill="#E27625" stroke="#E27625" stroke-width="0.25" stroke-linecap="round" stroke-linejoin="round"/>
<path d="M28.2771 23.5177L24.7751 28.7979L32.2481 30.8312L34.3631 23.6499L28.2771 23.5177Z" fill="#E27625" stroke="#E27625" stroke-width="0.25" stroke-linecap="round" stroke-linejoin="round"/>
<path d="M1.25684 23.6499L3.35808 30.8312L10.8224 28.7979L7.33161 23.5177L1.25684 23.6499Z" fill="#E27625" stroke="#E27625" stroke-width="0.25" stroke-linecap="round" stroke-linejoin="round"/>
<path d="M10.4255 14.7531L8.33936 17.8751L15.7373 18.2062L15.4796 10.2188L10.4255 14.7531Z" fill="#E27625" stroke="#E27625" stroke-width="0.25" stroke-linecap="round" stroke-linejoin="round"/>
<path d="M25.1787 14.7531L20.0496 10.1188L19.8242 18.2062L27.2221 17.8751L25.1787 14.7531Z" fill="#E27625" stroke="#E27625" stroke-width="0.25" stroke-linecap="round" stroke-linejoin="round"/>
<path d="M10.8224 28.7979L15.2541 26.6646L11.4267 23.7177L10.8224 28.7979Z" fill="#E27625" stroke="#E27625" stroke-width="0.25" stroke-linecap="round" stroke-linejoin="round"/>
<path d="M20.3501 26.6646L24.7751 28.7979L24.1708 23.7177L20.3501 26.6646Z" fill="#E27625" stroke="#E27625" stroke-width="0.25" stroke-linecap="round" stroke-linejoin="round"/>
<path d="M24.7751 28.7979L20.3501 26.6646L20.7204 29.5271L20.6879 30.7312L24.7751 28.7979Z" fill="#D5BFB2" stroke="#D5BFB2" stroke-width="0.25" stroke-linecap="round" stroke-linejoin="round"/>
<path d="M10.8224 28.7979L14.9096 30.7312L14.8838 29.5271L15.2541 26.6646L10.8224 28.7979Z" fill="#D5BFB2" stroke="#D5BFB2" stroke-width="0.25" stroke-linecap="round" stroke-linejoin="round"/>
<path d="M14.9742 21.8062L11.3018 20.7354L13.8992 19.5312L14.9742 21.8062Z" fill="#233447" stroke="#233447" stroke-width="0.25" stroke-linecap="round" stroke-linejoin="round"/>
<path d="M20.6301 21.8062L21.7051 19.5312L24.3092 20.7354L20.6301 21.8062Z" fill="#233447" stroke="#233447" stroke-width="0.25" stroke-linecap="round" stroke-linejoin="round"/>
<path d="M10.8224 28.7979L11.4525 23.5177L7.33154 23.6499L10.8224 28.7979Z" fill="#CC6228" stroke="#CC6228" stroke-width="0.25" stroke-linecap="round" stroke-linejoin="round"/>
<path d="M24.1516 23.5177L24.7751 28.7979L28.2771 23.6499L24.1516 23.5177Z" fill="#CC6228" stroke="#CC6228" stroke-width="0.25" stroke-linecap="round" stroke-linejoin="round"/>
<path d="M27.2221 17.8751L19.8242 18.2062L20.6301 21.8062L21.7051 19.5312L24.3092 20.7354L27.2221 17.8751Z" fill="#CC6228" stroke="#CC6228" stroke-width="0.25" stroke-linecap="round" stroke-linejoin="round"/>
<path d="M11.3018 20.7354L13.8992 19.5312L14.9742 21.8062L15.7373 18.2062L8.33936 17.8751L11.3018 20.7354Z" fill="#CC6228" stroke="#CC6228" stroke-width="0.25" stroke-linecap="round" stroke-linejoin="round"/>
<path d="M8.33936 17.8751L11.4267 23.7177L11.3018 20.7354L8.33936 17.8751Z" fill="#E27525" stroke="#E27525" stroke-width="0.25" stroke-linecap="round" stroke-linejoin="round"/>
<path d="M24.3092 20.7354L24.1708 23.7177L27.2221 17.8751L24.3092 20.7354Z" fill="#E27525" stroke="#E27525" stroke-width="0.25" stroke-linecap="round" stroke-linejoin="round"/>
<path d="M15.7373 18.2062L14.9742 21.8062L15.9351 26.3334L16.1863 20.4042L15.7373 18.2062Z" fill="#E27525" stroke="#E27525" stroke-width="0.25" stroke-linecap="round" stroke-linejoin="round"/>
<path d="M19.8242 18.2062L19.3883 20.3917L19.6395 26.3334L20.6301 21.8062L19.8242 18.2062Z" fill="#E27525" stroke="#E27525" stroke-width="0.25" stroke-linecap="round" stroke-linejoin="round"/>
<path d="M20.6301 21.8062L19.6395 26.3334L20.3501 26.6646L24.1708 23.7177L24.3092 20.7354L20.6301 21.8062Z" fill="#F5841F" stroke="#F5841F" stroke-width="0.25" stroke-linecap="round" stroke-linejoin="round"/>
<path d="M11.3018 20.7354L11.4267 23.7177L15.2541 26.6646L15.9351 26.3334L14.9742 21.8062L11.3018 20.7354Z" fill="#F5841F" stroke="#F5841F" stroke-width="0.25" stroke-linecap="round" stroke-linejoin="round"/>
<path d="M20.6879 30.7312L20.7204 29.5271L20.3759 29.2417H15.2283L14.8838 29.5271L14.9096 30.7312L10.8224 28.7979L12.2678 30.0021L15.1809 32H20.4166L23.3297 30.0021L24.7751 28.7979L20.6879 30.7312Z" fill="#C0AC9D" stroke="#C0AC9D" stroke-width="0.25" stroke-linecap="round" stroke-linejoin="round"/>
<path d="M20.3501 26.6646L19.6395 26.3334H15.9351L15.2541 26.6646L14.8838 29.5271L15.2283 29.2417H20.3759L20.7204 29.5271L20.3501 26.6646Z" fill="#161616" stroke="#161616" stroke-width="0.25" stroke-linecap="round" stroke-linejoin="round"/>
<path d="M33.5883 11.4812L34.7149 6.20103L32.9582 1L20.3501 10.5188L25.1787 14.7531L32.0557 16.7979L33.5754 15.0417L32.9065 14.5708L33.9557 13.6292L33.1498 13.0271L34.1991 12.2354L33.5883 11.4812Z" fill="#763E1A" stroke="#763E1A" stroke-width="0.25" stroke-linecap="round" stroke-linejoin="round"/>
<path d="M0.899414 6.20103L2.03935 11.4812L1.40186 12.2354L2.45789 13.0271L1.65197 13.6292L2.69445 14.5708L2.02889 15.0417L3.54197 16.7979L10.4255 14.7531L15.2541 10.5188L2.65601 1L0.899414 6.20103Z" fill="#763E1A" stroke="#763E1A" stroke-width="0.25" stroke-linecap="round" stroke-linejoin="round"/>
<path d="M32.0557 16.7979L25.1787 14.7531L27.2221 17.8751L24.1708 23.7177L28.2771 23.6499H34.3631L32.0557 16.7979Z" fill="#F5841F" stroke="#F5841F" stroke-width="0.25" stroke-linecap="round" stroke-linejoin="round"/>
<path d="M10.4255 14.7531L3.54197 16.7979L1.25684 23.6499H7.33161L11.4267 23.7177L8.33936 17.8751L10.4255 14.7531Z" fill="#F5841F" stroke="#F5841F" stroke-width="0.25" stroke-linecap="round" stroke-linejoin="round"/>
<path d="M19.8242 18.2062L20.3501 10.5188L22.2665 5.23403H13.3477L15.2541 10.5188L15.7373 18.2062L15.9222 20.4167L15.9351 26.3334H19.6395L19.6591 20.4167L19.8242 18.2062Z" fill="#F5841F" stroke="#F5841F" stroke-width="0.25" stroke-linecap="round" stroke-linejoin="round"/>
</svg>