<?xml version="1.0" encoding="utf-8"?>
<svg width="32" height="32" viewBox="0 0 32 32" fill="none" xmlns="http://www.w3.org/2000/svg">
<path d="M16 0C7.163 0 0 7.163 0 16C0 24.837 7.163 32 16 32C24.837 32 32 24.837 32 16C32 7.163 24.837 0 16 0Z" fill="url(#paint0_linear_1_2)"/>
<path d="M23.9098 9.8549H17.8079C17.3639 9.8549 17.0039 10.2149 17.0039 10.6589V13.6649C17.0039 14.1089 17.3639 14.4689 17.8079 14.4689H23.9098C24.3538 14.4689 24.7138 14.1089 24.7138 13.6649V10.6589C24.7138 10.2149 24.3538 9.8549 23.9098 9.8549Z" fill="white"/>
<path d="M13.9981 9.8549H7.89624C7.45224 9.8549 7.09224 10.2149 7.09224 10.6589V13.6649C7.09224 14.1089 7.45224 14.4689 7.89624 14.4689H13.9981C14.4421 14.4689 14.8021 14.1089 14.8021 13.6649V10.6589C14.8021 10.2149 14.4421 9.8549 13.9981 9.8549Z" fill="white"/>
<path d="M23.9098 17.5312H17.8079C17.3639 17.5312 17.0039 17.8912 17.0039 18.3352V21.3412C17.0039 21.7852 17.3639 22.1452 17.8079 22.1452H23.9098C24.3538 22.1452 24.7138 21.7852 24.7138 21.3412V18.3352C24.7138 17.8912 24.3538 17.5312 23.9098 17.5312Z" fill="white"/>
<path d="M13.9981 17.5312H7.89624C7.45224 17.5312 7.09224 17.8912 7.09224 18.3352V21.3412C7.09224 21.7852 7.45224 22.1452 7.89624 22.1452H13.9981C14.4421 22.1452 14.8021 21.7852 14.8021 21.3412V18.3352C14.8021 17.8912 14.4421 17.5312 13.9981 17.5312Z" fill="white"/>
<defs>
<linearGradient id="paint0_linear_1_2" x1="16" y1="0" x2="16" y2="32" gradientUnits="userSpaceOnUse">
<stop stop-color="#AB9FF2"/>
<stop offset="1" stop-color="#4C3FD1"/>
</linearGradient>
</defs>
</svg> 