<?xml version="1.0" encoding="UTF-8"?>
<svg width="512" height="512" viewBox="0 0 512 512" fill="none" xmlns="http://www.w3.org/2000/svg">
    <path d="M437.875 74.125C389.375 25.625 323.5 0 256 0C188.5 0 122.625 25.625 74.125 74.125C25.625 122.625 0 188.5 0 256C0 323.5 25.625 389.375 74.125 437.875C122.625 486.375 188.5 512 256 512C323.5 512 389.375 486.375 437.875 437.875C486.375 389.375 512 323.5 512 256C512 188.5 486.375 122.625 437.875 74.125ZM256 477.867C134.406 477.867 34.133 377.594 34.133 256C34.133 134.406 134.406 34.133 256 34.133C377.594 34.133 477.867 134.406 477.867 256C477.867 377.594 377.594 477.867 256 477.867Z" fill="#FFFFFF"/>
    <path d="M341.333 170.667H170.667V341.333H341.333V170.667ZM307.2 307.2H204.8V204.8H307.2V307.2Z" fill="#FFFFFF"/>
</svg> 